<?xml version="1.0" encoding="UTF-8"?><svg id="Layer_2" xmlns="http://www.w3.org/2000/svg" viewBox="0 0 544.8008 95.098"><g id="Components"><g id="_67a0a372-e43b-4638-b2d0-cfd18fdbbf67_1"><path d="M348.2455,15.0192c-.8497-.5064-1.7583-.779-2.7274-.8211v-.249c.8867-.1985,1.6758-.5351,2.3673-1.0129.6915-.4762,1.2367-1.0886,1.6338-1.839.3988-.7504.5973-1.622.5973-2.6164,0-1.2754-.3146-2.406-.9439-3.387-.631-.9826-1.5715-1.7498-2.8216-2.3051-1.2518-.5552-2.8132-.8329-4.6859-.8329h-10.1929v25.4553h10.876c1.9063,0,3.5098-.3062,4.8104-.9204,1.3006-.6124,2.2849-1.447,2.9512-2.5036.668-1.0566,1.0011-2.2597,1.0011-3.6107,0-1.2518-.2658-2.3303-.7958-3.2389-.53-.9069-1.2198-1.6136-2.0695-2.1183ZM336.8547,6.3053h4.0886c1.1929,0,2.115.2827,2.7661.8463.6495.562.9759,1.304.9759,2.2243,0,.6713-.1683,1.2468-.5031,1.728-.3365.4795-.7925.8514-1.3679,1.1122-.5754.2608-1.2333.392-1.9703.392h-3.9893v-6.3028ZM344.5237,22.1465c-.6882.5771-1.7818.8648-3.2827.8648h-4.3864v-6.7622h4.5109c.8631,0,1.6052.1531,2.2311.4593.6259.3079,1.1088.7302,1.4487,1.2686s.5098,1.161.5098,1.8643c0,.9607-.3449,1.7297-1.0314,2.3051Z" style="fill:#093a37; stroke-width:0px;"/><path d="M356.6919,27.1319c.9523.4257,2.0392.6394,3.2574.6394.9439,0,1.7768-.1262,2.4969-.3786.7218-.2524,1.3393-.6057,1.8525-1.0566s.9237-.9759,1.2316-1.5732h.1481v2.6483h5.0224v-12.8765c0-1.1357-.2204-2.1116-.6596-2.9276-.4391-.816-1.0381-1.4857-1.7953-2.0073-.7588-.5216-1.6253-.9069-2.5979-1.1559-.9742-.249-1.9921-.3735-3.0521-.3735-1.5244,0-2.8654.2305-4.0213.6898-1.1559.461-2.0981,1.1155-2.8267,1.9635-.7302.8497-1.2182,1.8542-1.4672,3.0151l4.8979.3971c.1817-.6293.5536-1.1542,1.1172-1.5715.5637-.419,1.3225-.6276,2.2748-.6276.9035,0,1.6018.2154,2.0948.6461.493.4307.7403,1.0398.7403,1.8272v.074c0,.4055-.1548.7134-.461.9204s-.7992.3617-1.479.4661c-.6797.1026-1.5749.2137-2.6837.3298-.9456.0909-1.8474.2473-2.7039.4711-.8581.2238-1.622.5552-2.2933.9944s-1.2013,1.0196-1.5917,1.7414c-.3887.7201-.5838,1.6102-.5838,2.6719,0,1.2585.2759,2.3101.8261,3.1514.5519.8396,1.304,1.4739,2.2563,1.9013ZM359.0542,20.6557c.2557-.3365.6158-.6024,1.0802-.8026.4644-.1985,1.0078-.3432,1.6287-.4341.2894-.0421.6141-.0892.9691-.143.3567-.0538.7134-.1161,1.0701-.1868.355-.0707.6764-.1497.9624-.2356.286-.0875.5115-.1851.6781-.2928v2.0258c0,.6713-.1699,1.272-.5098,1.802-.3399.5317-.8076.9523-1.4049,1.2619-.5956.3113-1.2838.4661-2.0628.4661-.8127,0-1.4823-.1884-2.0073-.5653-.5266-.3769-.7891-.9254-.7891-1.6472,0-.4964.1279-.9136.3853-1.2485Z" style="fill:#093a37; stroke-width:0px;"/><path d="M380.1096,16.3736c.0084-.8211.1632-1.5227.4661-2.1065.3029-.5838.7252-1.0297,1.267-1.3359.5435-.3062,1.1711-.461,1.8845-.461,1.06,0,1.8929.3298,2.4986.9893.604.6579.9018,1.5715.8934,2.7409v11.2108h5.295v-12.1564c0-1.4823-.2726-2.7611-.8194-3.8345-.5468-1.0735-1.3141-1.8996-2.3-2.4801-.986-.5788-2.1419-.8699-3.4677-.8699-1.4167,0-2.6231.3264-3.6175.9759-.9944.6511-1.7027,1.5311-2.1251,2.6416h-.2238v-3.3685h-5.046v19.0919h5.295v-11.0375Z" style="fill:#093a37; stroke-width:0px;"/><path d="M400.1639,26.5345c1.4049.8329,3.0841,1.2501,5.0409,1.2501,1.6977,0,3.1699-.3113,4.4116-.9321,1.2434-.6225,2.2193-1.4857,2.9276-2.5928.7084-1.1054,1.1038-2.3875,1.1879-3.8463h-4.9972c-.0993.6713-.3096,1.2451-.6276,1.7212-.3197.4762-.7218.8396-1.2064,1.0869-.4846.249-1.0297.3735-1.6338.3735-.8211,0-1.5378-.2238-2.1503-.6713-.6141-.4476-1.0886-1.097-1.4234-1.9518-.3365-.8531-.5031-1.8895-.5031-3.1077,0-1.2013.1683-2.2243.5081-3.069.3399-.8463.8144-1.4891,1.4234-1.9332.6091-.4425,1.3242-.6646,2.1452-.6646.9691,0,1.7532.2911,2.3556.8766.6007.5838.9708,1.3528,1.1122,2.3051h4.9972c-.0757-1.4756-.4778-2.7594-1.2064-3.853-.7302-1.0937-1.7196-1.9433-2.9714-2.5491-1.2501-.604-2.7089-.9069-4.3746-.9069-1.9316,0-3.5973.4173-4.9972,1.2501-1.3999.8329-2.4801,1.9888-3.2372,3.4677-.7588,1.479-1.1374,3.1968-1.1374,5.152,0,1.9299.3752,3.6377,1.1239,5.12.7504,1.484,1.8272,2.6416,3.2322,3.4745Z" style="fill:#093a37; stroke-width:0px;"/><path d="M420.76,26.548c1.4049.8244,3.0723,1.2367,5.0039,1.2367,1.9299,0,3.5973-.4122,5.0022-1.2367,1.4049-.8244,2.4885-1.977,3.2507-3.456.7622-1.479,1.1441-3.1968,1.1441-5.152,0-1.9719-.3819-3.6982-1.1441-5.1772-.7622-1.479-1.8458-2.6315-3.2507-3.456-1.4049-.8244-3.0723-1.2367-5.0022-1.2367-1.9316,0-3.599.4122-5.0039,1.2367-1.4032.8244-2.4868,1.977-3.2507,3.456-.7622,1.479-1.1425,3.2053-1.1425,5.1772,0,1.9551.3803,3.673,1.1425,5.152.7639,1.479,1.8474,2.6315,3.2507,3.456ZM422.2019,14.9317c.3029-.8699.7538-1.558,1.3545-2.0628.6007-.5064,1.3444-.7588,2.2327-.7588.8766,0,1.6102.2524,2.1991.7588.5889.5048,1.0331,1.1929,1.3359,2.0628.3029.8699.4543,1.8609.4543,2.9714s-.1514,2.0998-.4543,2.9697c-.3029.8699-.7471,1.5564-1.3359,2.0578-.5889.5014-1.3225.7521-2.1991.7521-.8884,0-1.6321-.2507-2.2327-.7521s-1.0516-1.1879-1.3545-2.0578c-.3029-.8699-.4526-1.8592-.4526-2.9697s.1497-2.1015.4526-2.9714Z" style="fill:#093a37; stroke-width:0px;"/><path d="M343.9887,44.378h-.1615c-.2322-.5132-.5704-1.0381-1.0129-1.5732-.4442-.5334-1.023-.9809-1.7398-1.341-.7168-.3617-1.6102-.5418-2.6786-.5418-1.4016,0-2.687.3634-3.8598,1.0886-1.1727.7252-2.1116,1.8138-2.8149,3.2675-.705,1.4554-1.0566,3.2759-1.0566,5.4632,0,2.1301.3416,3.9271,1.0247,5.3892.6848,1.4621,1.6119,2.5676,2.7846,3.318,1.1727.7504,2.4834,1.1256,3.9338,1.1256,1.028,0,1.8996-.1699,2.6164-.5098s1.3006-.7689,1.7532-1.2871c.4509-.5182.8009-1.0415,1.0499-1.5715h.2238v3.0572h5.2209v-25.4553h-5.2832v9.5703ZM343.6219,53.6875c-.318.8446-.774,1.5025-1.3662,1.9703-.5939.4677-1.3158.7016-2.1705.7016-.8699,0-1.6001-.2372-2.1924-.7134-.5939-.4778-1.0449-1.1408-1.3561-1.9888-.3096-.8497-.4661-1.8306-.4661-2.9411,0-1.1004.1531-2.0712.461-2.9074.3062-.8379.7571-1.4924,1.3545-1.9635.5956-.4728,1.3292-.7084,2.1991-.7084.8547,0,1.5799.2271,2.1755.6831.5973.456,1.0533,1.1021,1.3679,1.9383.3146.8379.4728,1.8239.4728,2.9579,0,1.1357-.1598,2.1267-.4795,2.9714Z" style="fill:#093a37; stroke-width:0px;"/><path d="M366.0637,54.4699c-.1817.4812-.4476.8884-.7958,1.2182-.3483.3315-.7656.5805-1.2552.7471-.4896.1649-1.028.2473-1.6152.2473-.8867,0-1.6539-.1851-2.3-.5586s-1.1458-.9035-1.4975-1.5917c-.3517-.6865-.5283-1.5025-.5283-2.4481v-.0118h13.001v-1.4554c0-1.6237-.2271-3.042-.6831-4.2568-.456-1.2131-1.092-2.2226-1.908-3.0269-.816-.8026-1.77-1.4066-2.8586-1.8087-1.0903-.4004-2.2647-.6024-3.5249-.6024-1.8727,0-3.5031.4139-4.8895,1.2434-1.3881.8278-2.4633,1.9837-3.2271,3.4677-.7622,1.484-1.1425,3.2069-1.1425,5.1705,0,2.014.3803,3.7554,1.1425,5.2277.7639,1.4705,1.8508,2.6063,3.2641,3.4055,1.4117.7992,3.1009,1.1997,5.0645,1.1997,1.5749,0,2.9646-.2423,4.171-.7285,1.2047-.4846,2.1907-1.1626,2.9579-2.0376.7656-.8749,1.2737-1.8996,1.5227-3.0757l-4.8979-.3247ZM360.0536,45.4279c.6175-.3685,1.3275-.5536,2.1318-.5536.7706,0,1.4487.1683,2.0325.5048.5838.3348,1.0415.7975,1.373,1.3847.3315.5889.498,1.2636.498,2.0258h-7.9946c.033-.6828.1922-1.3153.5123-1.8828.3466-.6175.8295-1.1105,1.447-1.479Z" style="fill:#093a37; stroke-width:0px;"/><path d="M398.5486,59.8709c1.2972-.493,2.4161-1.1643,3.3567-2.0123.9405-.8497,1.6893-1.8155,2.2496-2.8973.5586-1.0802.9086-2.2058,1.0499-3.3735l-5.4447-.0252c-.1245.6797-.3449,1.2838-.6646,1.8138-.3197.5317-.7184.9809-1.1997,1.3494-.4795.3685-1.0297.6478-1.6472.8396-.6175.1901-1.2855.2844-2.0073.2844-1.2838,0-2.4145-.3146-3.392-.9439-.9792-.6293-1.7398-1.5614-2.2815-2.7964-.5435-1.235-.8144-2.7594-.8144-4.5748,0-1.765.2692-3.2658.8076-4.5059.5384-1.2384,1.2972-2.1823,2.2748-2.8334.9776-.6511,2.1251-.9759,3.4425-.9759.7302,0,1.4066.1043,2.0325.3113.6259.207,1.1795.5048,1.6607.8951.4795.3887.8732.8598,1.1795,1.41.3079.5519.5098,1.1795.6091,1.8828h5.4447c-.1733-1.4739-.5704-2.7829-1.1862-3.9271-.6175-1.1441-1.415-2.1116-2.3943-2.9024-.9776-.7908-2.0981-1.3948-3.3617-1.8087-1.2636-.4139-2.6332-.6209-4.1071-.6209-2.2378,0-4.2518.5115-6.042,1.5345-1.7885,1.023-3.2069,2.5087-4.2501,4.4554-1.0449,1.9484-1.5665,4.309-1.5665,7.0852,0,2.7678.5165,5.125,1.5479,7.0734,1.0314,1.9467,2.4397,3.4341,4.2249,4.4621,1.7869,1.028,3.8143,1.5412,6.0858,1.5412,1.6321,0,3.0959-.2473,4.3931-.7403Z" style="fill:#093a37; stroke-width:0px;"/><path d="M422.599,59.3998c1.4049-.8244,2.4885-1.977,3.2507-3.456.7622-1.479,1.1441-3.1968,1.1441-5.152,0-1.9719-.3819-3.6982-1.1441-5.1772-.7622-1.479-1.8458-2.6315-3.2507-3.456-1.4049-.8244-3.0723-1.2367-5.0022-1.2367-1.9316,0-3.599.4122-5.0039,1.2367-1.4032.8244-2.4868,1.977-3.2507,3.456-.7622,1.479-1.1425,3.2053-1.1425,5.1772,0,1.9551.3803,3.673,1.1425,5.152.7639,1.479,1.8474,2.6315,3.2507,3.456,1.4049.8244,3.0723,1.2367,5.0039,1.2367,1.9299,0,3.5973-.4122,5.0022-1.2367ZM414.0348,53.7245c-.3029-.8699-.4526-1.8592-.4526-2.9697s.1497-2.1015.4526-2.9714c.3029-.8699.7538-1.558,1.3545-2.0628.6007-.5064,1.3444-.7588,2.2327-.7588.8766,0,1.6102.2524,2.1991.7588.5889.5048,1.0331,1.1929,1.3359,2.0628s.4543,1.8609.4543,2.9714-.1514,2.0998-.4543,2.9697-.7471,1.5564-1.3359,2.0578-1.3225.7521-2.1991.7521c-.8884,0-1.6321-.2507-2.2327-.7521s-1.0516-1.1879-1.3545-2.0578Z" style="fill:#093a37; stroke-width:0px;"/><path d="M458.1916,60.2629v-12.8395c0-2.0712-.5586-3.673-1.6725-4.8037-1.1138-1.1324-2.5625-1.6977-4.3443-1.6977-1.3999,0-2.613.3298-3.636.9877-1.023.6596-1.7297,1.5362-2.1183,2.6298h-.2002c-.3062-1.1105-.9187-1.9905-1.839-2.6416-.9204-.6495-2.0342-.9759-3.3432-.9759-1.2922,0-2.4027.323-3.3314.9691-.9288.6478-1.59,1.5294-1.9888,2.6483h-.2238v-3.3685h-5.046v19.0919h5.295v-11.4598c0-.705.1363-1.3191.4105-1.8458.2726-.5266.6444-.9372,1.1122-1.2316.4677-.2928.9961-.4408,1.585-.4408.8699,0,1.5715.2776,2.1065.8329.5351.5552.8009,1.3006.8009,2.2378v11.9074h5.1335v-11.6584c0-.9944.2692-1.797.8093-2.406.5384-.6091,1.2871-.9136,2.2496-.9136.8446,0,1.5496.2658,2.1133.7958.562.53.8446,1.3258.8446,2.3859v11.7963h5.2832Z" style="fill:#093a37; stroke-width:0px;"/><path d="M466.0037,59.4368c1.4117.7992,3.1009,1.1997,5.0645,1.1997,1.5749,0,2.9646-.2423,4.171-.7285,1.2047-.4846,2.1907-1.1626,2.9579-2.0376.7656-.8749,1.2737-1.8996,1.5227-3.0757l-4.8979-.3247c-.1817.4812-.4476.8884-.7958,1.2182-.3483.3315-.7656.5805-1.2552.7471-.4896.1649-1.028.2473-1.6152.2473-.8867,0-1.6539-.1851-2.3-.5586s-1.1458-.9035-1.4975-1.5917c-.3517-.6865-.5283-1.5025-.5283-2.4481v-.0118h13.001v-1.4554c0-1.6237-.2271-3.042-.6831-4.2568-.456-1.2131-1.092-2.2226-1.908-3.0269-.816-.8026-1.77-1.4066-2.8586-1.8087-1.0903-.4004-2.2647-.6024-3.5249-.6024-1.8727,0-3.5031.4139-4.8895,1.2434-1.3881.8278-2.4633,1.9837-3.2271,3.4677-.7622,1.484-1.1425,3.2069-1.1425,5.1705,0,2.014.3803,3.7554,1.1425,5.2277.7639,1.4705,1.8508,2.6063,3.2641,3.4055ZM468.8118,45.4279c.6175-.3685,1.3275-.5536,2.1318-.5536.7706,0,1.4487.1683,2.0325.5048.5838.3348,1.0415.7975,1.373,1.3847.3315.5889.498,1.2636.498,2.0258h-7.9946c.033-.6828.1922-1.3153.5123-1.8828.3466-.6175.8295-1.1105,1.447-1.479Z" style="fill:#093a37; stroke-width:0px;"/><polygon points="476.3631 33.0544 471.4652 33.0544 468.8304 38.7095 472.5723 38.7095 476.3631 33.0544" style="fill:#093a37; stroke-width:0px;"/><path d="M493.8397,45.5827c.4391.0589.7824.1245,1.0314.2002v-4.6994c-.2322-.0572-.5014-.1026-.8076-.1363-.3079-.0337-.5923-.0505-.8581-.0505-1.0684,0-2.014.3045-2.8334.9136-.8211.6091-1.4049,1.5076-1.7532,2.6921h-.1985v-3.3314h-5.1335v19.0919h5.295v-10.802c0-.779.175-1.4655.5283-2.0628.3517-.5973.8329-1.0634,1.4419-1.3982.6091-.3365,1.3023-.5031,2.0813-.5031.3651,0,.7672.0286,1.2064.0858Z" style="fill:#093a37; stroke-width:0px;"/><path d="M503.2418,45.7139c.6091-.4425,1.3242-.6646,2.1452-.6646.9691,0,1.7532.2911,2.3556.8766.6007.5838.9708,1.3528,1.1122,2.3051h4.9972c-.0757-1.4756-.4778-2.7594-1.2064-3.853-.7302-1.0937-1.7196-1.9433-2.9714-2.5491-1.2501-.604-2.7089-.9069-4.3746-.9069-1.9316,0-3.5973.4173-4.9972,1.2501-1.3999.8329-2.4801,1.9888-3.2372,3.4677-.7588,1.479-1.1374,3.1968-1.1374,5.152,0,1.9299.3752,3.6377,1.1239,5.12.7504,1.484,1.8272,2.6416,3.2322,3.4745,1.4049.8329,3.0841,1.2501,5.0409,1.2501,1.6977,0,3.1699-.3113,4.4116-.9321,1.2434-.6225,2.2193-1.4857,2.9276-2.5928.7084-1.1054,1.1038-2.3875,1.1879-3.8463h-4.9972c-.0993.6713-.3096,1.2451-.6276,1.7212-.3197.4762-.7218.8396-1.2064,1.0869-.4846.249-1.0297.3735-1.6338.3735-.8211,0-1.5378-.2238-2.1503-.6713-.6141-.4476-1.0886-1.097-1.4234-1.9518-.3365-.8531-.5031-1.8895-.5031-3.1077,0-1.2013.1683-2.2243.5081-3.069.3399-.8463.8144-1.4891,1.4234-1.9332Z" style="fill:#093a37; stroke-width:0px;"/><path d="M519.9176,33.3522c-.7874,0-1.4605.2642-2.0207.7891-.5586.5266-.8379,1.1542-.8379,1.8845,0,.737.2793,1.3679.8379,1.8945.5603.5266,1.2333.7891,2.0207.7891s1.4605-.2625,2.0191-.7891c.5603-.5266.8396-1.1576.8396-1.8945,0-.7302-.2793-1.3578-.8396-1.8845-.5586-.525-1.2316-.7891-2.0191-.7891Z" style="fill:#093a37; stroke-width:0px;"/><rect x="517.2574" y="41.171" width="5.295" height="19.0919" style="fill:#093a37; stroke-width:0px;"/><path d="M543.6566,45.6146c-.7622-1.479-1.8458-2.6315-3.2507-3.456-1.4049-.8244-3.0723-1.2367-5.0022-1.2367-1.9316,0-3.599.4122-5.0039,1.2367-1.4032.8244-2.4868,1.977-3.2507,3.456-.7622,1.479-1.1425,3.2053-1.1425,5.1772,0,1.9551.3803,3.673,1.1425,5.152.7639,1.479,1.8474,2.6315,3.2507,3.456,1.4049.8244,3.0723,1.2367,5.0039,1.2367,1.9299,0,3.5973-.4122,5.0022-1.2367s2.4885-1.977,3.2507-3.456c.7622-1.479,1.1441-3.1968,1.1441-5.152,0-1.9719-.3819-3.6982-1.1441-5.1772ZM538.964,53.7245c-.3029.8699-.7471,1.5564-1.3359,2.0578s-1.3225.7521-2.1991.7521c-.8884,0-1.6321-.2507-2.2327-.7521s-1.0516-1.1879-1.3545-2.0578-.4526-1.8592-.4526-2.9697.1497-2.1015.4526-2.9714.7538-1.558,1.3545-2.0628c.6007-.5064,1.3444-.7588,2.2327-.7588.8766,0,1.6102.2524,2.1991.7588.5889.5048,1.0331,1.1929,1.3359,2.0628.3029.8699.4543,1.8609.4543,2.9714s-.1514,2.0998-.4543,2.9697Z" style="fill:#093a37; stroke-width:0px;"/><path d="M346.245,76.1832c-.816-.8026-1.77-1.4066-2.8586-1.8087-1.0903-.4004-2.2647-.6024-3.5249-.6024-1.8727,0-3.5031.4139-4.8895,1.2434-1.3881.8278-2.4633,1.9837-3.2271,3.4677-.7622,1.484-1.1425,3.2069-1.1425,5.1705,0,2.014.3803,3.7554,1.1425,5.2277.7639,1.4705,1.8508,2.6063,3.2641,3.4055,1.4117.7992,3.1009,1.1997,5.0645,1.1997,1.5749,0,2.9646-.2423,4.171-.7285,1.2047-.4846,2.1907-1.1626,2.9579-2.0376.7656-.8749,1.2737-1.8996,1.5227-3.0757l-4.8979-.3247c-.1817.4812-.4476.8884-.7958,1.2182-.3483.3315-.7656.5805-1.2552.7471-.4896.1649-1.028.2473-1.6152.2473-.8867,0-1.6539-.1851-2.3-.5586s-1.1458-.9035-1.4975-1.5917c-.3517-.6865-.5283-1.5025-.5283-2.4481v-.0118h13.001v-1.4554c0-1.6237-.2271-3.042-.6831-4.2568-.456-1.2131-1.092-2.2226-1.908-3.0269ZM335.8578,81.6397c.033-.6828.1922-1.3153.5123-1.8828.3466-.6175.8295-1.1105,1.447-1.479.6175-.3685,1.3275-.5536,2.1318-.5536.7706,0,1.4487.1683,2.0325.5048.5838.3348,1.0415.7975,1.373,1.3847.3315.5889.498,1.2636.498,2.0258h-7.9946Z" style="fill:#093a37; stroke-width:0px;"/><rect x="360.5079" y="67.6577" width="5.3825" height="25.4553" style="fill:#093a37; stroke-width:0px;"/><path d="M384.708,74.642c-.986-.5788-2.1419-.8699-3.4677-.8699-1.4167,0-2.6231.3264-3.6175.9759-.9944.6511-1.7027,1.5311-2.1251,2.6416h-.2238v-3.3685h-5.046v19.0919h5.295v-11.0375c.0084-.8211.1632-1.5227.4661-2.1065.3029-.5838.7252-1.0297,1.267-1.3359.5435-.3062,1.1711-.461,1.8845-.461,1.06,0,1.8929.3298,2.4986.9893.604.6579.9018,1.5715.8934,2.7409v11.2108h5.295v-12.1564c0-1.4823-.2726-2.7611-.8194-3.8345s-1.3141-1.8996-2.3-2.4801Z" style="fill:#093a37; stroke-width:0px;"/><path d="M404.6075,77.228h-.1615c-.2322-.5132-.5704-1.0381-1.0129-1.5732-.4442-.5334-1.023-.9809-1.7398-1.341-.7168-.3617-1.6102-.5418-2.6786-.5418-1.4016,0-2.687.3634-3.8598,1.0886-1.1727.7252-2.1116,1.8138-2.8149,3.2675-.705,1.4554-1.0566,3.2759-1.0566,5.4632,0,2.1301.3416,3.9271,1.0247,5.3892.6848,1.4621,1.6119,2.5676,2.7846,3.318s2.4834,1.1256,3.9338,1.1256c1.028,0,1.8996-.1699,2.6164-.5098s1.3006-.7689,1.7532-1.2871c.4509-.5182.8009-1.0415,1.0499-1.5715h.2238v3.0572h5.2209v-25.4553h-5.2832v9.5703ZM404.2407,86.5376c-.318.8446-.774,1.5025-1.3662,1.9703-.5939.4677-1.3158.7016-2.1705.7016-.8699,0-1.6001-.2372-2.1924-.7134-.5939-.4778-1.0449-1.1408-1.3561-1.9888-.3096-.8497-.4661-1.8306-.4661-2.9411,0-1.1004.1531-2.0712.461-2.9074.3062-.8379.7571-1.4924,1.3545-1.9635.5956-.4728,1.3292-.7084,2.1991-.7084.8547,0,1.5799.2271,2.1755.6831.5973.456,1.0533,1.1021,1.3679,1.9383.3146.8379.4728,1.8239.4728,2.9579,0,1.1357-.1598,2.1267-.4795,2.9714Z" style="fill:#093a37; stroke-width:0px;"/><path d="M426.4705,84.9846c.0084.8531-.1582,1.5698-.5031,2.1503-.3432.5788-.7925,1.0163-1.3477,1.3107-.5552.2944-1.1525.4408-1.7902.4408-1.0028,0-1.802-.3264-2.3993-.9809-.5956-.6545-.8985-1.5463-.9069-2.6736v-11.2108h-5.295v12.1564c.0084,1.4907.2844,2.7712.8261,3.8413.5435,1.0684,1.2989,1.8929,2.2681,2.4733.9708.5788,2.0931.8699,3.3685.8699,1.4335,0,2.65-.3399,3.6494-1.0196.9978-.6797,1.7128-1.5782,2.1436-2.6971h.1985v3.4677h5.0847v-19.0919h-5.2967v10.9635Z" style="fill:#093a37; stroke-width:0px;"/><polygon points="421.1133 71.5595 424.8553 71.5595 428.6461 65.9045 423.7498 65.9045 421.1133 71.5595" style="fill:#093a37; stroke-width:0px;"/><path d="M446.794,82.025l-3.456-.6949c-.8867-.1918-1.5126-.4442-1.8777-.7588-.3634-.3146-.5468-.6999-.5468-1.1559,0-.5721.2827-1.0297.8463-1.373.562-.3449,1.2552-.5165,2.0746-.5165.6141,0,1.1425.1026,1.585.3045.4442.2036.8026.4728,1.0751.8076.2743.3365.4526.7117.5351,1.1256l4.8474-.2978c-.2322-1.7566-1.0415-3.1447-2.4296-4.1643-1.3881-1.0196-3.2877-1.5294-5.6988-1.5294-1.6338,0-3.0572.2406-4.2703.7218-1.2148.4795-2.1553,1.1643-2.8216,2.051s-1.0011,1.9433-1.0011,3.1682c0,1.4251.4543,2.5979,1.3612,3.5182.9086.9204,2.2933,1.5665,4.1576,1.9383l3.3062.6596c.8295.1666,1.4419.4038,1.8407.7151.3971.3096.6007.7067.6091,1.1862-.0084.5721-.2961,1.0381-.8648,1.3982-.567.3617-1.3158.5418-2.2428.5418-.9456,0-1.7196-.2019-2.3253-.604-.604-.4004-.986-.9877-1.1425-1.7583l-5.2075.2743c.2557,1.8222,1.1324,3.2625,2.6281,4.3191,1.4958,1.0566,3.5064,1.585,6.0353,1.585,1.6556,0,3.1211-.2642,4.3931-.7891,1.272-.5266,2.2748-1.2619,3.0084-2.2075.7336-.9439,1.1004-2.0426,1.1004-3.2927,0-1.3763-.456-2.4868-1.3679-3.3314-.9119-.8463-2.295-1.4588-4.1508-1.8407Z" style="fill:#093a37; stroke-width:0px;"/><path d="M464.7535,89.0429c-.2473.0454-.4964.0673-.7454.0673-.3567,0-.6697-.0538-.9389-.1615s-.4778-.2961-.6276-.5653c-.1481-.2692-.2238-.6478-.2238-1.1374v-9.2473h3.5922v-3.9775h-3.5922v-4.5748h-5.295v4.5748h-2.6096v3.9775h2.6096v9.9439c-.0084,1.2518.2541,2.2866.7841,3.1077.53.8194,1.2737,1.4251,2.2311,1.8138.9574.3904,2.0729.5603,3.35.5098.6865-.0252,1.272-.0925,1.7515-.2053.4812-.111.8547-.2086,1.1189-.2911l-.8329-3.9405c-.1329.0252-.323.0606-.5721.106Z" style="fill:#093a37; stroke-width:0px;"/><path d="M479.173,73.7468c-1.0684,0-2.014.3045-2.8334.9136-.8211.6091-1.4049,1.5076-1.7532,2.6921h-.1985v-3.3314h-5.1335v19.0919h5.295v-10.802c0-.779.175-1.4655.5283-2.0628.3517-.5973.8329-1.0634,1.4419-1.3982.6091-.3365,1.3023-.5031,2.0813-.5031.3651,0,.7672.0286,1.2064.0858.4391.0589.7824.1245,1.0314.2002v-4.6994c-.2322-.0572-.5014-.1026-.8076-.1363-.3079-.0337-.5923-.0505-.8581-.0505Z" style="fill:#093a37; stroke-width:0px;"/><rect x="483.5594" y="74.0211" width="5.295" height="19.0919" style="fill:#093a37; stroke-width:0px;"/><path d="M486.2195,66.2023c-.7874,0-1.4605.2642-2.0207.7891-.5586.5266-.8379,1.1542-.8379,1.8845,0,.737.2793,1.3679.8379,1.8945.5603.5266,1.2333.7891,2.0207.7891s1.4605-.2625,2.0191-.7891c.5603-.5266.8396-1.1576.8396-1.8945,0-.7302-.2793-1.3578-.8396-1.8845-.5586-.525-1.2316-.7891-2.0191-.7891Z" style="fill:#093a37; stroke-width:0px;"/><path d="M506.8223,75.3015c-.7588-.5216-1.6253-.9069-2.5979-1.1559-.9742-.249-1.9921-.3735-3.0521-.3735-1.5244,0-2.8654.2305-4.0213.6898-1.1559.461-2.0981,1.1155-2.8267,1.9635-.7302.8497-1.2182,1.8542-1.4672,3.0151l4.8979.3971c.1817-.6293.5536-1.1542,1.1172-1.5715.5637-.419,1.3225-.6276,2.2748-.6276.9035,0,1.6018.2154,2.0948.6461.493.4307.7403,1.0398.7403,1.8272v.074c0,.4055-.1548.7134-.461.9204s-.7992.3617-1.479.4661c-.6797.1026-1.5749.2137-2.6837.3298-.9456.0909-1.8474.2473-2.7039.4711-.8581.2238-1.622.5552-2.2933.9944s-1.2013,1.0196-1.5917,1.7414c-.3887.7201-.5838,1.6102-.5838,2.6719,0,1.2585.2759,2.3101.8261,3.1514.5519.8396,1.304,1.4739,2.2563,1.9013.9523.4257,2.0392.6394,3.2574.6394.9439,0,1.7768-.1262,2.4969-.3786.7218-.2524,1.3393-.6057,1.8525-1.0566.5132-.4509.9237-.9759,1.2316-1.5732h.1481v2.6483h5.0224v-12.8765c0-1.1357-.2204-2.1116-.6596-2.9276s-1.0381-1.4857-1.7953-2.0073ZM504.0192,86.2886c0,.6713-.1699,1.272-.5098,1.802-.3399.5317-.8076.9523-1.4049,1.2619-.5956.3113-1.2838.4661-2.0628.4661-.8127,0-1.4823-.1884-2.0073-.5653-.5266-.3769-.7891-.9254-.7891-1.6472,0-.4964.1279-.9136.3853-1.2485.2557-.3365.6158-.6024,1.0802-.8026.4644-.1985,1.0078-.3432,1.6287-.4341.2894-.0421.6141-.0892.9691-.143.3567-.0538.7134-.1161,1.0701-.1868.355-.0707.6764-.1497.9624-.2356.286-.0875.5115-.1851.6781-.2928v2.0258Z" style="fill:#093a37; stroke-width:0px;"/><path d="M115.3829,1.9559h43.7498c8.4183,0,15.0078,2.1329,19.7706,6.393,4.7618,4.262,7.1427,10.4356,7.1427,18.5237,0,4.0888-.936,7.8063-2.8061,11.1533-1.871,3.349-4.4222,5.935-7.6526,7.762,4.4203,1.6528,7.7363,4.1542,9.9488,7.5003,2.2106,3.349,3.3159,7.7197,3.3159,13.1102,0,5.479-1.2116,10.2403-3.6348,14.2849-2.4232,4.0436-5.7401,7.1318-9.9488,9.2619-4.2096,2.132-8.8651,3.196-13.9674,3.196h-45.9181s0-91.1853,0-91.1853ZM155.4339,39.0043c3.3997,0,6.0788-.8688,8.0354-2.6091,1.9557-1.7385,2.934-4.5208,2.934-8.3489,0-4.1744-.9567-7.0443-2.8701-8.6096-1.9134-1.5653-4.8267-2.3484-8.7372-2.3484h-20.0255s0,21.916,0,21.916h20.6633ZM156.5816,78.0087c4.1654,0,7.3346-.8476,9.5029-2.5437,2.1683-1.6961,3.2529-4.6737,3.2529-8.9357,0-4.3476-1.1279-7.4782-3.3809-9.3927-2.2539-1.9116-5.5915-2.8699-10.0128-2.8699h-21.1732s0,23.742,0,23.742h21.811ZM217.6788,89.2929c-7.3148-3.8685-12.9684-9.3696-16.9645-16.5024-3.998-7.1299-5.995-15.523-5.995-25.1765s1.9971-18.0677,5.995-25.2419c3.9961-7.1751,9.6496-12.6965,16.9645-16.5679C224.9908,1.9357,233.4091,0,242.9336,0c12.3287,0,22.619,2.8699,30.868,8.6096v18.7845c-3.743-3.2162-8.0166-5.5444-12.8188-6.9789-4.8051-1.4354-10.2686-2.1522-16.3907-2.1522-9.2696,0-16.6042,2.6313-22.0029,7.8919-5.4005,5.2625-8.0994,12.4155-8.0994,21.459,0,9.132,2.7205,16.3283,8.1633,21.5899,5.441,5.2625,12.7549,7.8919,21.9389,7.8919,6.2914,0,11.8622-.76,16.7096-2.283,4.8465-1.5201,9.3524-3.9782,13.5197-7.3704v18.7854c-7.8238,5.9148-18.4527,8.8703-31.8877,8.8703-9.5245,0-17.9428-1.9367-25.2548-5.8051ZM285.1529,1.9564h19.3877v91.1853h-19.3877V1.9564Z" style="fill:#093a37; stroke-width:0px;"/><path d="M47.1948,34.6463l9.7429,12.6887v45.7678h-6.8807v-48.7263s-50.057,0-50.057,0v-9.7303h47.1948ZM0,18.3011v9.7303s66.1496,0,66.1496,0v65.0714s6.8807,0,6.8807,0V30.9898s-9.7429-12.6887-9.7429-12.6887H0ZM79.3801,1.9559H0s0,9.7306,0,9.7306h82.2422s0,81.4163,0,81.4163h6.8807s0-78.4582,0-78.4582l-9.7429-12.6887ZM40.8288,63.6609v29.4419H9.2836S0,81.0122,0,81.0122v-30.04h31.0859s9.7429,12.6887,9.7429,12.6887ZM35.5423,60.9397H9.2824s0,26.7565,0,26.7565h26.2599s0-26.7565,0-26.7565Z" style="fill:#e72a87; stroke-width:0px;"/></g></g></svg>