<svg width="150" height="154" viewBox="0 0 150 154" fill="none" xmlns="http://www.w3.org/2000/svg" xmlns:xlink="http://www.w3.org/1999/xlink">
<path d="M79.42,55.02L95.82,76.38L95.82,153.4L84.24,153.4L84.24,71.4L0,71.4L0,55.02L79.42,55.02ZM0,27.5L0,43.88L111.32,43.88L111.32,153.4L122.9,153.4L122.9,48.86L106.5,27.5L0,27.5ZM133.58,0L0,0L0,16.38L138.4,16.38L138.4,153.4L149.98,153.4L149.98,21.36L133.58,0ZM68.7,103.84L68.7,153.38L15.62,153.38L0,133.04L0,82.48L52.32,82.48L68.72,103.84L68.7,103.84ZM59.82,99.26L15.62,99.26L15.62,144.28L59.82,144.28L59.82,99.26Z" fill="#E72A87"/>
</svg>
